<?xml version="1.0" encoding="utf-8"?>
<!-- Generator: Adobe Illustrator 16.0.0, SVG Export Plug-In . SVG Version: 6.00 Build 0)  -->
<!DOCTYPE svg PUBLIC "-//W3C//DTD SVG 1.1//EN" "http://www.w3.org/Graphics/SVG/1.1/DTD/svg11.dtd">
<svg version="1.1" xmlns="http://www.w3.org/2000/svg" xmlns:xlink="http://www.w3.org/1999/xlink" x="0px" y="0px"
	 width="1041.481px" height="318.454px" viewBox="0 0 1041.481 318.454" enable-background="new 0 0 1041.481 318.454"
	 xml:space="preserve">
<g id="Layer_13" display="none">
	<rect x="-0.519" y="0.454" display="inline" fill="#070B00" width="1053" height="350"/>
</g>
<g id="structure">
	<linearGradient id="SVGID_1_" gradientUnits="userSpaceOnUse" x1="358.4814" y1="223.4536" x2="358.4814" y2="200.4536">
		<stop  offset="0" style="stop-color:#0A0A0A"/>
		<stop  offset="0.2097" style="stop-color:#2B2B2B"/>
		<stop  offset="0.5215" style="stop-color:#281B2D"/>
		<stop  offset="1" style="stop-color:#000000"/>
	</linearGradient>
	<path opacity="0.6" fill="url(#SVGID_1_)" d="M602.481,223.454h-488c-5,0-5-23,0-23h488
		C607.481,200.454,607.481,223.454,602.481,223.454z"/>
</g>
<g id="dc-adapters">
	<g id="adapter">
		
			<radialGradient id="SVGID_2_" cx="155.8735" cy="185.3164" r="21.1149" gradientTransform="matrix(0.943 0 0 0.3772 20.8338 119.0165)" gradientUnits="userSpaceOnUse">
			<stop  offset="1" style="stop-color:#1C1C2D"/>
			<stop  offset="1" style="stop-color:#222E3F"/>
		</radialGradient>
		<path fill="url(#SVGID_2_)" d="M190.445,190.142c0,4.822,0.223,14.319,0.223,14.319s-17.756,0.366-22.816,0.366
			c-6.679,0-22.875,0.553-22.875,0.553s0.282-11.468,0.282-15.238c0-8.111,10.116-17.686,22.594-17.686
			S190.445,182.031,190.445,190.142z"/>
		<linearGradient id="SVGID_3_" gradientUnits="userSpaceOnUse" x1="142.4346" y1="205.9106" x2="194.1167" y2="205.9106">
			<stop  offset="0" style="stop-color:#899AD3"/>
			<stop  offset="0.1613" style="stop-color:#504F52"/>
			<stop  offset="0.4731" style="stop-color:#636366"/>
			<stop  offset="0.5323" style="stop-color:#5CA194"/>
			<stop  offset="0.6452" style="stop-color:#6B6B6B"/>
		</linearGradient>
		<path fill="url(#SVGID_3_)" d="M168.276,195.367c-14.686,0-25.841,4.236-25.841,8.213c0,3.977,0.683,12.873,4.66,12.873h42.362
			c3.978,0,4.66-8.896,4.66-12.873C194.117,199.603,182.961,195.367,168.276,195.367z"/>
		<path opacity="0.6" fill="#172121" d="M168.276,195.367c-14.686,0-25.841,4.236-25.841,8.213c0,3.977,0.683,12.873,4.66,12.873
			h42.362c3.978,0,4.66-8.896,4.66-12.873C194.117,199.603,182.961,195.367,168.276,195.367z"/>
		<path fill="#000100" d="M186.979,212.947c-2.093-0.847-7.69-3.778-18.28-3.778s-17.497,3.125-19.127,3.831
			s-4.115,3.124-4.115,7.36c0,3.389,8.839,12.285,23.654,12.285c13.129,0,20.248-9.643,21.699-11.837
			c0.186-0.143,0.284-0.291,0.284-0.448C191.094,216.124,189.073,213.794,186.979,212.947z"/>
		<path fill="#000100" d="M149.572,212.735c0,0,8.537-3.672,19.127-3.672s18.28,3.672,18.28,3.672"/>
	</g>
	<g id="adapter_copy">
		
			<radialGradient id="SVGID_4_" cx="236.7339" cy="185.3164" r="21.1149" gradientTransform="matrix(0.943 0 0 0.3772 20.8338 119.0165)" gradientUnits="userSpaceOnUse">
			<stop  offset="1" style="stop-color:#1C1C2D"/>
			<stop  offset="1" style="stop-color:#222E3F"/>
		</radialGradient>
		<path fill="url(#SVGID_4_)" d="M266.697,190.142c0,4.822,0.223,14.319,0.223,14.319s-17.756,0.366-22.816,0.366
			c-6.678,0-22.875,0.553-22.875,0.553s0.282-11.468,0.282-15.238c0-8.111,10.116-17.686,22.593-17.686
			C256.582,172.456,266.697,182.031,266.697,190.142z"/>
		<linearGradient id="SVGID_5_" gradientUnits="userSpaceOnUse" x1="218.6865" y1="205.9106" x2="270.3682" y2="205.9106">
			<stop  offset="0" style="stop-color:#899AD3"/>
			<stop  offset="0.1613" style="stop-color:#504F52"/>
			<stop  offset="0.4731" style="stop-color:#636366"/>
			<stop  offset="0.5323" style="stop-color:#1E903B"/>
			<stop  offset="0.6452" style="stop-color:#6B6B6B"/>
		</linearGradient>
		<path fill="url(#SVGID_5_)" d="M244.527,195.367c-14.685,0-25.841,4.236-25.841,8.213c0,3.977,0.683,12.873,4.66,12.873h42.362
			c3.978,0,4.66-8.896,4.66-12.873C270.368,199.603,259.212,195.367,244.527,195.367z"/>
		<path opacity="0.6" fill="#172121" d="M244.527,195.367c-14.685,0-25.841,4.236-25.841,8.213c0,3.977,0.683,12.873,4.66,12.873
			h42.362c3.978,0,4.66-8.896,4.66-12.873C270.368,199.603,259.212,195.367,244.527,195.367z"/>
		<path fill="#000100" d="M263.231,212.947c-2.093-0.847-7.69-3.778-18.28-3.778c-10.591,0-17.497,3.125-19.127,3.831
			s-4.115,3.124-4.115,7.36c0,3.389,8.839,12.285,23.654,12.285c13.129,0,20.248-9.643,21.699-11.837
			c0.185-0.143,0.284-0.291,0.284-0.448C267.346,216.124,265.324,213.794,263.231,212.947z"/>
		<path fill="#000100" d="M225.824,212.735c0,0,8.537-3.672,19.127-3.672c10.59,0,18.28,3.672,18.28,3.672"/>
	</g>
	<g id="adapter_copy_2">
		
			<radialGradient id="SVGID_6_" cx="317.5947" cy="184.8677" r="21.1149" gradientTransform="matrix(0.943 0 0 0.3772 20.8338 118.7627)" gradientUnits="userSpaceOnUse">
			<stop  offset="1" style="stop-color:#1C1C2D"/>
			<stop  offset="1" style="stop-color:#222E3F"/>
		</radialGradient>
		<path fill="url(#SVGID_6_)" d="M342.948,189.718c0,4.822,0.223,14.32,0.223,14.32s-17.757,0.365-22.816,0.365
			c-6.679,0-22.876,0.553-22.876,0.553s0.282-11.468,0.282-15.238c0-8.11,10.116-17.685,22.594-17.685
			C332.833,172.033,342.948,181.607,342.948,189.718z"/>
		<linearGradient id="SVGID_7_" gradientUnits="userSpaceOnUse" x1="294.938" y1="205.6987" x2="346.6196" y2="205.6987">
			<stop  offset="0" style="stop-color:#899AD3"/>
			<stop  offset="0.1613" style="stop-color:#504F52"/>
			<stop  offset="0.4731" style="stop-color:#636366"/>
			<stop  offset="0.5323" style="stop-color:#9D5F7A"/>
			<stop  offset="0.6452" style="stop-color:#6B6B6B"/>
		</linearGradient>
		<path fill="url(#SVGID_7_)" d="M320.779,194.944c-14.685,0-25.841,4.447-25.841,8.424c0,3.977,0.683,13.085,4.66,13.085h42.362
			c3.977,0,4.66-9.108,4.66-13.085C346.62,199.391,335.464,194.944,320.779,194.944z"/>
		<path opacity="0.6" fill="#172121" d="M320.779,194.944c-14.685,0-25.841,4.447-25.841,8.424c0,3.977,0.683,13.085,4.66,13.085
			h42.362c3.977,0,4.66-9.108,4.66-13.085C346.62,199.391,335.464,194.944,320.779,194.944z"/>
		<path fill="#000100" d="M339.482,212.523c-2.093-0.847-7.689-3.778-18.28-3.778c-10.59,0-17.497,3.125-19.126,3.831
			c-1.631,0.706-4.115,3.124-4.115,7.36c0,3.389,8.839,12.285,23.654,12.285c13.129,0,20.248-9.642,21.699-11.837
			c0.186-0.142,0.284-0.291,0.284-0.447C343.597,215.7,341.576,213.371,339.482,212.523z"/>
		<path fill="#000100" d="M302.076,212.312c0,0,8.536-3.672,19.126-3.672c10.591,0,18.28,3.672,18.28,3.672"/>
	</g>
	<g id="adapter_copy_3">
		
			<radialGradient id="SVGID_8_" cx="398.4556" cy="184.4185" r="21.1147" gradientTransform="matrix(0.943 0 0 0.3772 20.8338 118.5085)" gradientUnits="userSpaceOnUse">
			<stop  offset="1" style="stop-color:#1C1C2D"/>
			<stop  offset="1" style="stop-color:#222E3F"/>
		</radialGradient>
		<path fill="url(#SVGID_8_)" d="M419.2,189.294c0,4.822,0.222,14.32,0.222,14.32s-17.756,0.366-22.816,0.366
			c-6.678,0-22.875,0.553-22.875,0.553s0.283-11.468,0.283-15.238c0-8.11,10.115-17.685,22.593-17.685
			C409.084,171.609,419.2,181.184,419.2,189.294z"/>
		<linearGradient id="SVGID_9_" gradientUnits="userSpaceOnUse" x1="371.1895" y1="205.4868" x2="422.8711" y2="205.4868">
			<stop  offset="0" style="stop-color:#899AD3"/>
			<stop  offset="0.1613" style="stop-color:#504F52"/>
			<stop  offset="0.4731" style="stop-color:#636366"/>
			<stop  offset="0.5323" style="stop-color:#87A52E"/>
			<stop  offset="0.6452" style="stop-color:#6B6B6B"/>
		</linearGradient>
		<path fill="url(#SVGID_9_)" d="M397.03,194.52c-14.685,0-25.841,4.659-25.841,8.637c0,3.977,0.683,13.297,4.66,13.297h42.362
			c3.977,0,4.66-9.32,4.66-13.297C422.871,199.179,411.715,194.52,397.03,194.52z"/>
		<path opacity="0.6" fill="#172121" d="M397.03,194.52c-14.685,0-25.841,4.659-25.841,8.637c0,3.977,0.683,13.297,4.66,13.297
			h42.362c3.977,0,4.66-9.32,4.66-13.297C422.871,199.179,411.715,194.52,397.03,194.52z"/>
		<path fill="#000100" d="M415.734,212.1c-2.093-0.848-7.689-3.778-18.28-3.778c-10.59,0-17.496,3.125-19.127,3.831
			c-1.63,0.706-4.115,3.125-4.115,7.36c0,3.389,8.839,12.285,23.654,12.285c13.129,0,20.248-9.643,21.699-11.838
			c0.186-0.142,0.284-0.291,0.284-0.447C419.849,215.277,417.828,212.947,415.734,212.1z"/>
		<path fill="#000100" d="M378.327,211.888c0,0,8.537-3.672,19.127-3.672c10.591,0,18.28,3.672,18.28,3.672"/>
	</g>
	<g id="adapter_copy_4">
		
			<radialGradient id="SVGID_10_" cx="479.3159" cy="185.3164" r="21.1149" gradientTransform="matrix(0.943 0 0 0.3772 20.8338 119.0165)" gradientUnits="userSpaceOnUse">
			<stop  offset="1" style="stop-color:#1C1C2D"/>
			<stop  offset="1" style="stop-color:#222E3F"/>
		</radialGradient>
		<path fill="url(#SVGID_10_)" d="M495.452,190.142c0,4.822,0.223,14.319,0.223,14.319s-17.757,0.366-22.816,0.366
			c-6.679,0-22.875,0.553-22.875,0.553s0.282-11.468,0.282-15.238c0-8.111,10.115-17.686,22.593-17.686
			C485.336,172.456,495.452,182.031,495.452,190.142z"/>
		<linearGradient id="SVGID_11_" gradientUnits="userSpaceOnUse" x1="447.4409" y1="205.9106" x2="499.1226" y2="205.9106">
			<stop  offset="0" style="stop-color:#899AD3"/>
			<stop  offset="0.1613" style="stop-color:#504F52"/>
			<stop  offset="0.4731" style="stop-color:#636366"/>
			<stop  offset="0.5323" style="stop-color:#9D5F7A"/>
			<stop  offset="0.6452" style="stop-color:#6B6B6B"/>
		</linearGradient>
		<path fill="url(#SVGID_11_)" d="M473.282,195.367c-14.685,0-25.841,4.236-25.841,8.213c0,3.977,0.683,12.873,4.66,12.873h42.362
			c3.977,0,4.659-8.896,4.659-12.873C499.123,199.603,487.967,195.367,473.282,195.367z"/>
		<path opacity="0.6" fill="#172121" d="M473.282,195.367c-14.685,0-25.841,4.236-25.841,8.213c0,3.977,0.683,12.873,4.66,12.873
			h42.362c3.977,0,4.659-8.896,4.659-12.873C499.123,199.603,487.967,195.367,473.282,195.367z"/>
		<path fill="#000100" d="M491.986,212.947c-2.093-0.847-7.69-3.778-18.28-3.778c-10.591,0-17.497,3.125-19.127,3.831
			c-1.63,0.706-4.114,3.124-4.114,7.36c0,3.389,8.839,12.285,23.654,12.285c13.129,0,20.248-9.643,21.699-11.837
			c0.186-0.143,0.284-0.291,0.284-0.448C496.101,216.124,494.079,213.794,491.986,212.947z"/>
		<path fill="#000100" d="M454.578,212.735c0,0,8.537-3.672,19.127-3.672c10.59,0,18.28,3.672,18.28,3.672"/>
	</g>
	<g id="adapter_copy_5">
		
			<radialGradient id="SVGID_12_" cx="560.1772" cy="185.3164" r="21.1149" gradientTransform="matrix(0.943 0 0 0.3772 20.8338 119.0165)" gradientUnits="userSpaceOnUse">
			<stop  offset="1" style="stop-color:#1C1C2D"/>
			<stop  offset="1" style="stop-color:#222E3F"/>
		</radialGradient>
		<path fill="url(#SVGID_12_)" d="M571.704,190.142c0,4.822,0.223,14.319,0.223,14.319s-17.757,0.366-22.816,0.366
			c-6.678,0-22.875,0.553-22.875,0.553s0.281-11.468,0.281-15.238c0-8.111,10.115-17.686,22.594-17.686
			S571.704,182.031,571.704,190.142z"/>
		<linearGradient id="SVGID_13_" gradientUnits="userSpaceOnUse" x1="523.6929" y1="205.9106" x2="575.3745" y2="205.9106">
			<stop  offset="0" style="stop-color:#899AD3"/>
			<stop  offset="0.1613" style="stop-color:#504F52"/>
			<stop  offset="0.4731" style="stop-color:#636366"/>
			<stop  offset="0.5323" style="stop-color:#9EA939"/>
			<stop  offset="0.6452" style="stop-color:#6B6B6B"/>
		</linearGradient>
		<path fill="url(#SVGID_13_)" d="M549.534,195.367c-14.686,0-25.841,4.236-25.841,8.213c0,3.977,0.683,12.873,4.66,12.873h42.362
			c3.977,0,4.659-8.896,4.659-12.873C575.375,199.603,564.219,195.367,549.534,195.367z"/>
		<path opacity="0.6" fill="#172121" d="M549.534,195.367c-14.686,0-25.841,4.236-25.841,8.213c0,3.977,0.683,12.873,4.66,12.873
			h42.362c3.977,0,4.659-8.896,4.659-12.873C575.375,199.603,564.219,195.367,549.534,195.367z"/>
		<path fill="#000100" d="M568.238,212.947c-2.094-0.847-7.69-3.778-18.28-3.778c-10.591,0-17.496,3.125-19.128,3.831
			c-1.63,0.706-4.114,3.124-4.114,7.36c0,3.389,8.84,12.285,23.654,12.285c13.129,0,20.248-9.643,21.699-11.837
			c0.185-0.143,0.283-0.291,0.283-0.448C572.352,216.124,570.331,213.794,568.238,212.947z"/>
		<path fill="#000100" d="M530.83,212.735c0,0,8.537-3.672,19.128-3.672c10.59,0,18.28,3.672,18.28,3.672"/>
	</g>
</g>
<g id="wire">
	<g>
		<path fill-rule="evenodd" clip-rule="evenodd" fill="none" stroke="#171313" stroke-width="8" stroke-miterlimit="10" d="
			M885.779,195.001c0,0,66.458-47.207,95.952-60.882c12.938-5.998,44.889-23.061,46.119-60.898s-63.31-37.063-63.31-37.063
			S876.8,40.839,852.462,1.441"/>
		<path fill-rule="evenodd" clip-rule="evenodd" fill="none" stroke="#171313" stroke-width="16" stroke-miterlimit="10" d="
			M887.338,199.682c0,0,66.459-47.207,95.953-60.881c12.938-5.998,44.889-23.061,46.119-60.899S966.1,40.839,966.1,40.839
			s-89.115-3.51-113.453-42.909"/>
		<linearGradient id="SVGID_14_" gradientUnits="userSpaceOnUse" x1="848.3931" y1="100.3101" x2="1034.4282" y2="100.3101">
			<stop  offset="0" style="stop-color:#625E60"/>
			<stop  offset="0.457" style="stop-color:#434445"/>
			<stop  offset="0.9785" style="stop-color:#808285"/>
		</linearGradient>
		
			<path opacity="0.5" fill-rule="evenodd" clip-rule="evenodd" fill="none" stroke="url(#SVGID_14_)" stroke-width="10" stroke-miterlimit="10" d="
			M887.338,200.462c0,0,66.459-47.207,95.953-60.881c12.938-5.999,44.889-23.061,46.119-60.899
			c1.23-37.838-63.311-37.062-63.311-37.062S876.985,38.109,852.647-1.29"/>
		<path fill-rule="evenodd" clip-rule="evenodd" fill="#373230" d="M736.126,258.29c0,0-8.274,2.559-4.22,19.162
			c4.057,16.604,14.284,28.264,23.433,32.773c9.147,4.51,7.974,2.836,12.139,1.712c5.083-1.372,30.703-20.348,33.297-21.791
			s24.618-14.937,27.438-16.336c6.203-3.078,25.366-18.53,35.896-27.649c10.53-9.122,45.632-34.938,45.722-41.505
			c0.089-6.568,0.352-10.248,0.352-10.248s-8.849-4.937-9.05-14.766c-0.034-1.718-12.381-6.804-13.003-6.509
			c-1.354,0.643-45.874,27.083-51.855,29.154c-5.98,2.07-21.555,5.033-21.555,5.033C802.825,215.029,736.126,258.29,736.126,258.29z
			"/>
		
			<ellipse transform="matrix(0.897 -0.4421 0.4421 0.897 -45.9506 363.3942)" fill-rule="evenodd" clip-rule="evenodd" fill="#373230" cx="756.738" cy="280.291" rx="15.17" ry="24.591"/>
		
			<ellipse transform="matrix(0.8652 -0.5015 0.5015 0.8652 -40.3658 416.2648)" fill-rule="evenodd" clip-rule="evenodd" fill="none" stroke="#E0C8B1" stroke-width="6" stroke-miterlimit="10" cx="753.945" cy="283.201" rx="12.461" ry="23.265"/>
		<path fill-rule="evenodd" clip-rule="evenodd" fill="#171313" d="M764.275,275.876c4.682,8.581,7.005,22.369,0.666,24.521
			c-3.02,1.025-9.573-4.712-14.405-12.29c-4.593-7.203-11.818-20.409-5.933-23.104C749.563,262.732,760.184,268.376,764.275,275.876
			z"/>
		<path fill-rule="evenodd" clip-rule="evenodd" fill="#171313" d="M878.245,184.056c0,0,4.217,3.688,3.811,4.156
			c-0.78,0.896-3.185,2.391-3.696,2.619c-0.513,0.228-4.472-3.467-4.643-4.037C873.545,186.225,878.245,184.056,878.245,184.056z"/>
		<path fill-rule="evenodd" clip-rule="evenodd" fill="#171313" d="M868.102,189.516c0,0,4.217,3.689,3.811,4.156
			c-0.779,0.896-3.185,2.391-3.695,2.619c-0.514,0.228-4.473-3.467-4.644-4.036C863.403,191.686,868.102,189.516,868.102,189.516z"
			/>
		<path fill-rule="evenodd" clip-rule="evenodd" fill="#171313" d="M857.18,195.758c0,0,4.216,3.689,3.81,4.156
			c-0.779,0.896-3.184,2.39-3.695,2.619c-0.513,0.228-4.473-3.468-4.643-4.037C852.481,197.927,857.18,195.758,857.18,195.758z"/>
		<path fill-rule="evenodd" clip-rule="evenodd" fill="#171313" d="M882.389,194.627l3.272-2.619c0,0,1.456-0.598,1.937,0.258
			c0.48,0.857,6.588,5.227,10.86,18.853c0.152,0.487-4.439,4.16-4.439,4.16C890.425,205.673,885.606,198.391,882.389,194.627z"/>
		<path fill-rule="evenodd" clip-rule="evenodd" fill="#171313" d="M872.247,200.869l3.273-2.619c0,0,1.455-0.598,1.936,0.258
			c0.48,0.857,6.588,5.227,10.86,18.853c0.152,0.487-4.439,4.161-4.439,4.161C880.283,211.914,875.464,204.632,872.247,200.869z"/>
		<path fill-rule="evenodd" clip-rule="evenodd" fill="#171313" d="M862.104,207.89l3.273-2.619c0,0,1.456-0.598,1.936,0.258
			c0.481,0.857,6.589,5.227,10.861,18.853c0.152,0.487-4.439,4.161-4.439,4.161C870.141,218.936,865.322,211.654,862.104,207.89z"/>
		<path fill-rule="evenodd" clip-rule="evenodd" fill="#171313" d="M850.854,210.826c0,0,9.254,10.699,12.573,24.252
			c3.318,13.553,0.116-11.988-3.453-16.775C856.406,213.516,853.425,212.16,850.854,210.826z"/>
		<path fill-rule="evenodd" clip-rule="evenodd" fill="#171313" d="M766.862,265.958c0,0,14.115,11.735,9.893,41.026
			c0,0,2.077-2.961,2.654-6.031c1.666-11.509-2.36-21.808-2.869-23.26C774.565,272.059,769.286,267.546,766.862,265.958z"/>
		<path opacity="0.3" fill-rule="evenodd" clip-rule="evenodd" fill="#F7931E" d="M901.132,179.642
			c-0.734,7.551,3.003,10.22,9.05,14.766c0.188,0.141-2.862-1.893-6.784-6.853C901.754,185.476,901.132,179.642,901.132,179.642z"/>
		<path opacity="0.6" fill="#171313" stroke="#000000" stroke-linecap="round" stroke-linejoin="round" stroke-miterlimit="10" d="
			M816.061,232.444c0,0,9.131,6.18,12.93,17.924c2.241,6.924,3.011,10.272,3.239,19.263c0.006,0.253-2.298-12.443-4.907-18.948
			C824.79,244.365,821.159,238.685,816.061,232.444z"/>
		<path opacity="0.6" fill="#171313" stroke="#000000" stroke-linecap="round" stroke-linejoin="round" stroke-miterlimit="10" d="
			M799.964,219.312c6.552,3.167,6.444,4.029,9.918,7.854c0.169,0.188-4.34-3.82-10.844-6.43
			C797.668,220.146,799.964,219.312,799.964,219.312z"/>
		<path opacity="0.6" fill="#171313" stroke="#000000" stroke-linecap="round" stroke-linejoin="round" stroke-miterlimit="10" d="
			M795.284,222.433c6.552,3.167,6.443,4.029,9.918,7.854c0.169,0.188-4.341-3.82-10.845-6.43
			C792.987,223.266,795.284,222.433,795.284,222.433z"/>
		<path opacity="0.6" fill="#171313" stroke="#000000" stroke-linecap="round" stroke-linejoin="round" stroke-miterlimit="10" d="
			M791.382,224.773c6.553,3.167,6.444,4.028,9.919,7.853c0.169,0.188-4.341-3.82-10.845-6.43
			C789.086,225.606,791.382,224.773,791.382,224.773z"/>
		<path opacity="0.6" fill="#171313" stroke="#000000" stroke-linecap="round" stroke-linejoin="round" stroke-miterlimit="10" d="
			M787.482,227.113c6.552,3.167,6.443,4.029,9.918,7.854c0.169,0.187-4.341-3.82-10.845-6.431
			C785.185,227.947,787.482,227.113,787.482,227.113z"/>
		<path opacity="0.6" fill="#171313" stroke="#000000" stroke-linecap="round" stroke-linejoin="round" stroke-miterlimit="10" d="
			M812.161,234.784c0,0,9.13,6.181,12.93,17.924c2.24,6.924,3.01,10.273,3.239,19.265c0.005,0.251-2.299-12.445-4.908-18.95
			C820.889,246.706,817.258,241.025,812.161,234.784z"/>
		<path opacity="0.6" fill="#171313" stroke="#000000" stroke-linecap="round" stroke-linejoin="round" stroke-miterlimit="10" d="
			M807.479,236.345c0,0,9.13,6.18,12.931,17.923c2.241,6.925,3.01,10.273,3.238,19.264c0.007,0.253-2.297-12.444-4.906-18.949
			C816.208,248.266,812.578,242.586,807.479,236.345z"/>
		<path opacity="0.6" fill="#171313" stroke="#000000" stroke-linecap="round" stroke-linejoin="round" stroke-miterlimit="10" d="
			M803.58,239.465c0,0,9.129,6.18,12.929,17.924c2.241,6.924,3.011,10.272,3.238,19.263c0.007,0.253-2.297-12.443-4.906-18.948
			C812.306,251.386,808.676,245.707,803.58,239.465z"/>
		<path opacity="0.6" fill="#171313" stroke="#000000" stroke-linecap="round" stroke-linejoin="round" stroke-miterlimit="10" d="
			M798.898,241.806c0,0,9.13,6.181,12.93,17.923c2.24,6.924,3.01,10.273,3.239,19.265c0.005,0.252-2.299-12.445-4.908-18.95
			C807.626,253.727,803.996,248.046,798.898,241.806z"/>
		<path opacity="0.6" fill="#171313" stroke="#000000" stroke-linecap="round" stroke-linejoin="round" stroke-miterlimit="10" d="
			M782.801,230.234c6.552,3.167,6.443,4.028,9.917,7.854c0.17,0.187-4.34-3.821-10.844-6.431
			C780.504,231.068,782.801,230.234,782.801,230.234z"/>
		<path opacity="0.6" fill="#171313" stroke="#000000" stroke-linecap="round" stroke-linejoin="round" stroke-miterlimit="10" d="
			M778.12,233.354c6.553,3.167,6.444,4.029,9.919,7.854c0.169,0.187-4.341-3.821-10.845-6.43
			C775.824,234.189,778.12,233.354,778.12,233.354z"/>
		<path opacity="0.6" fill="#171313" stroke="#000000" stroke-linecap="round" stroke-linejoin="round" stroke-miterlimit="10" d="
			M774.219,235.696c6.552,3.167,6.443,4.029,9.918,7.853c0.169,0.187-4.341-3.82-10.845-6.43
			C771.922,236.529,774.219,235.696,774.219,235.696z"/>
		<path opacity="0.6" fill="#171313" stroke="#000000" stroke-linecap="round" stroke-linejoin="round" stroke-miterlimit="10" d="
			M770.318,238.036c6.553,3.167,6.444,4.028,9.919,7.853c0.168,0.188-4.342-3.82-10.846-6.43
			C768.022,238.869,770.318,238.036,770.318,238.036z"/>
		<path opacity="0.6" fill="#171313" stroke="#000000" stroke-linecap="round" stroke-linejoin="round" stroke-miterlimit="10" d="
			M765.637,240.376c6.553,3.167,6.444,4.029,9.918,7.854c0.17,0.187-4.34-3.82-10.844-6.43
			C763.341,241.209,765.637,240.376,765.637,240.376z"/>
		<path opacity="0.6" fill="#171313" stroke="#000000" stroke-linecap="round" stroke-linejoin="round" stroke-miterlimit="10" d="
			M794.997,244.146c0,0,9.13,6.18,12.93,17.924c2.241,6.924,3.011,10.271,3.239,19.263c0.007,0.252-2.298-12.445-4.907-18.95
			C803.725,256.067,800.094,250.387,794.997,244.146z"/>
		<path opacity="0.6" fill="#171313" stroke="#000000" stroke-linecap="round" stroke-linejoin="round" stroke-miterlimit="10" d="
			M790.317,247.267c0,0,9.129,6.181,12.929,17.924c2.241,6.924,3.011,10.271,3.238,19.263c0.007,0.252-2.297-12.444-4.906-18.949
			C799.043,259.188,795.414,253.508,790.317,247.267z"/>
		<path opacity="0.6" fill="#171313" stroke="#000000" stroke-linecap="round" stroke-linejoin="round" stroke-miterlimit="10" d="
			M785.635,249.608c0,0,9.13,6.18,12.93,17.924c2.24,6.924,3.01,10.272,3.239,19.263c0.005,0.253-2.299-12.444-4.908-18.949
			C794.364,261.529,790.733,255.848,785.635,249.608z"/>
		<path opacity="0.6" fill="#171313" stroke="#000000" stroke-linecap="round" stroke-linejoin="round" stroke-miterlimit="10" d="
			M781.734,252.728c0,0,9.13,6.18,12.93,17.924c2.241,6.924,3.011,10.272,3.239,19.263c0.006,0.253-2.298-12.443-4.907-18.948
			C790.462,264.649,786.832,258.969,781.734,252.728z"/>
	</g>
	<circle fill="#FFFFFF" stroke="#000000" stroke-width="0.5" cx="751.7" cy="280.027" r="2.329"/>
	<circle cx="751.7" cy="280.028" r="1.164"/>
	<circle fill="#FFFFFF" stroke="#000000" stroke-width="0.5" cx="759.776" cy="285.009" r="2.329"/>
	<path d="M759.776,283.844c0.645,0,1.164,0.523,1.164,1.166c0,0.641-0.52,1.164-1.164,1.164c-0.643,0-1.164-0.523-1.164-1.164
		C758.612,284.368,759.133,283.844,759.776,283.844z"/>
</g>
<g id="barrels">
	<path fill="#000100" d="M186.571,212.172c-2.093-0.848-7.69-3.778-18.28-3.778s-17.496,3.125-19.127,3.831
		c-1.631,0.705-4.115,3.125-4.115,7.36c0,3.389,8.839,12.285,23.654,12.285c13.129,0,20.248-9.643,21.699-11.838
		c0.186-0.143,0.284-0.292,0.284-0.447C190.685,215.35,188.664,213.02,186.571,212.172z"/>
	
		<linearGradient id="SVGID_15_" gradientUnits="userSpaceOnUse" x1="208.9707" y1="121.624" x2="229.3047" y2="121.624" gradientTransform="matrix(1 0 0 -1 -50 374.9072)">
		<stop  offset="0" style="stop-color:#899AD3"/>
		<stop  offset="0.1613" style="stop-color:#504F52"/>
		<stop  offset="0.4731" style="stop-color:#636366"/>
		<stop  offset="0.5269" style="stop-color:#436BFE"/>
		<stop  offset="0.6452" style="stop-color:#6B6B6B"/>
	</linearGradient>
	<path fill="url(#SVGID_15_)" d="M179.305,278.482c0,5.615-4.552,5.932-10.167,5.932l0,0c-5.615,0-10.167-0.316-10.167-5.932
		v-52.119c0-5.614,20.334-5.614,20.334,0V278.482z"/>
	
		<linearGradient id="SVGID_16_" gradientUnits="userSpaceOnUse" x1="212.3599" y1="127.144" x2="215.749" y2="127.144" gradientTransform="matrix(1 0 0 -1 -50 374.9072)">
		<stop  offset="0" style="stop-color:#FFFFFF"/>
		<stop  offset="1" style="stop-color:#B1B1B1"/>
	</linearGradient>
	<path fill="url(#SVGID_16_)" d="M165.749,272.552c0,0.848-3.389-2.542-3.389-3.39v-45.341c0-0.847,3.389-1.198,3.389-0.847V272.552
		z"/>
	
		<linearGradient id="SVGID_17_" gradientUnits="userSpaceOnUse" x1="220.832" y1="127.1382" x2="225.9155" y2="127.1382" gradientTransform="matrix(1 0 0 -1 -50 374.9072)">
		<stop  offset="0" style="stop-color:#FFFFFF"/>
		<stop  offset="1" style="stop-color:#B1B1B1"/>
	</linearGradient>
	<path fill="url(#SVGID_17_)" d="M175.916,259.659c0,0.897-0.349,13.077-1.694,13.077c0,0-3.389,0.119-3.389-0.777v-49.053
		c1.417-0.371,4.481,0.281,5.083,0.847V259.659z"/>
	<path fill="#2196F3" d="M179.305,279.065c0,5.063-4.552,5.351-10.167,5.351l0,0c-5.615,0-10.167-0.287-10.167-5.351v-3.124
		c0-4.236,20.334-4.236,20.334,0V279.065z"/>
	<path d="M174.22,278.876c-0.011,2.919-2.175,3.076-5.095,3.066l0,0c-2.918-0.012-5.083-0.184-5.073-3.103l0.008,0.471
		c0.009-2.541,10.176-2.505,10.167,0.037L174.22,278.876z"/>
	<path fill="#000100" d="M262.822,212.172c-2.093-0.848-7.689-3.778-18.28-3.778c-10.59,0-17.497,3.125-19.127,3.831
		c-1.631,0.705-4.114,3.125-4.114,7.36c0,3.389,8.839,12.285,23.654,12.285c13.129,0,20.247-9.643,21.698-11.838
		c0.186-0.143,0.284-0.292,0.284-0.447C266.937,215.35,264.916,213.02,262.822,212.172z"/>
	
		<linearGradient id="SVGID_18_" gradientUnits="userSpaceOnUse" x1="285.2222" y1="128.1064" x2="305.5562" y2="128.1064" gradientTransform="matrix(1 0 0 -1 -50 374.9072)">
		<stop  offset="0" style="stop-color:#899AD3"/>
		<stop  offset="0.1613" style="stop-color:#504F52"/>
		<stop  offset="0.4731" style="stop-color:#636366"/>
		<stop  offset="0.5269" style="stop-color:#499647"/>
		<stop  offset="0.6452" style="stop-color:#6B6B6B"/>
	</linearGradient>
	<path fill="url(#SVGID_18_)" d="M255.556,265.518c0,5.614-4.552,5.931-10.167,5.931l0,0c-5.614,0-10.167-0.316-10.167-5.931
		v-39.155c0-5.614,20.334-5.614,20.334,0V265.518z"/>
	
		<linearGradient id="SVGID_19_" gradientUnits="userSpaceOnUse" x1="288.6113" y1="132.7793" x2="292.0005" y2="132.7793" gradientTransform="matrix(1 0 0 -1 -50 374.9072)">
		<stop  offset="0" style="stop-color:#FFFFFF"/>
		<stop  offset="1" style="stop-color:#B1B1B1"/>
	</linearGradient>
	<path fill="url(#SVGID_19_)" d="M242,260.434c0,0.848-3.389-2.542-3.389-3.389v-32.376c0-0.848,3.389-1.198,3.389-0.848V260.434z"
		/>
	
		<linearGradient id="SVGID_20_" gradientUnits="userSpaceOnUse" x1="297.084" y1="133.6206" x2="302.167" y2="133.6206" gradientTransform="matrix(1 0 0 -1 -50 374.9072)">
		<stop  offset="0" style="stop-color:#FFFFFF"/>
		<stop  offset="1" style="stop-color:#B1B1B1"/>
	</linearGradient>
	<path fill="url(#SVGID_20_)" d="M252.167,251.186c0,0.897-0.349,8.585-1.694,8.585c0,0-3.389,0.119-3.389-0.777v-36.088
		c1.417-0.371,4.481,0.281,5.083,0.847V251.186z"/>
	<path fill="#4CAF50" d="M255.556,266.1c0,5.063-4.552,5.35-10.167,5.35l0,0c-5.614,0-10.167-0.286-10.167-5.35v-3.124
		c0-4.236,20.334-4.236,20.334,0V266.1z"/>
	<path d="M250.471,265.912c-0.01,2.919-2.175,3.076-5.094,3.066l0,0c-2.919-0.012-5.083-0.184-5.073-3.103l0.007,0.472
		c0.009-2.542,10.176-2.505,10.167,0.036L250.471,265.912z"/>
	<path fill="#000100" d="M339.074,211.749c-2.093-0.847-7.689-3.777-18.28-3.777c-10.59,0-17.497,3.125-19.127,3.831
		c-1.63,0.705-4.114,3.124-4.114,7.36c0,3.389,8.839,12.285,23.654,12.285c13.128,0,20.247-9.643,21.698-11.838
		c0.186-0.142,0.284-0.292,0.284-0.447C343.188,214.926,341.167,212.596,339.074,211.749z"/>
	
		<linearGradient id="SVGID_21_" gradientUnits="userSpaceOnUse" x1="361.4736" y1="121.9546" x2="381.8076" y2="121.9546" gradientTransform="matrix(1 0 0 -1 -50 374.9072)">
		<stop  offset="0" style="stop-color:#899AD3"/>
		<stop  offset="0.1613" style="stop-color:#504F52"/>
		<stop  offset="0.414" style="stop-color:#636366"/>
		<stop  offset="0.5269" style="stop-color:#D62E4D"/>
		<stop  offset="0.6452" style="stop-color:#6B6B6B"/>
	</linearGradient>
	<path fill="url(#SVGID_21_)" d="M329.266,278.059c0,5.615-3.705,5.931-7.625,5.931l0,0c-3.92,0-7.625-0.315-7.625-5.931v-51.696
		c0-5.931,15.25-5.931,15.25,0V278.059z"/>
	
		<linearGradient id="SVGID_22_" gradientUnits="userSpaceOnUse" x1="364.8633" y1="126.7202" x2="368.252" y2="126.7202" gradientTransform="matrix(1 0 0 -1 -50 374.9072)">
		<stop  offset="0" style="stop-color:#FFFFFF"/>
		<stop  offset="1" style="stop-color:#B1B1B1"/>
	</linearGradient>
	<path fill="url(#SVGID_22_)" d="M317.405,272.976c0,0.847-2.542-2.542-2.542-3.39v-45.341c0-0.847,2.542-1.198,2.542-0.847V272.976
		z"/>
	
		<linearGradient id="SVGID_23_" gradientUnits="userSpaceOnUse" x1="373.3354" y1="127.562" x2="378.4185" y2="127.562" gradientTransform="matrix(1 0 0 -1 -50 374.9072)">
		<stop  offset="0" style="stop-color:#FFFFFF"/>
		<stop  offset="1" style="stop-color:#B1B1B1"/>
	</linearGradient>
	<path fill="url(#SVGID_23_)" d="M325.877,259.236c0,0.896-0.349,13.076-1.694,13.076c0,0-2.542,0.119-2.542-0.777v-49.053
		c1.416-0.371,3.634,0.281,4.236,0.847V259.236z"/>
	<path fill="#F44336" d="M329.266,278.641c0,5.063-3.705,5.351-7.625,5.351l0,0c-3.92,0-7.625-0.287-7.625-5.351v-2.7
		c0-4.236,15.25-4.236,15.25,0V278.641z"/>
	<path d="M325.873,278.327c-0.009,2.92-1.328,3.076-4.247,3.067l0,0c-2.072-0.012-4.235-0.185-4.226-3.103l0.008,0.471
		c0.009-2.542,8.481-2.505,8.472,0.037L325.873,278.327z"/>
	<path fill="#000100" d="M415.083,209.63c-1.678-1.119-6.719-3.777-15.973-3.777c-9.253,0-15.287,3.125-16.711,3.831
		c-1.425,0.705-8.075,4.08-8.075,8.316c0,3.389,12.202,11.329,25.148,11.329c11.471,0,20.377-10.107,20.377-10.263
		C419.849,214.829,418.004,211.579,415.083,209.63z"/>
	
		<linearGradient id="SVGID_24_" gradientUnits="userSpaceOnUse" x1="442.9136" y1="131.5049" x2="452.3626" y2="131.5049" gradientTransform="matrix(1 0 0 -1 -50 374.9072)">
		<stop  offset="0" style="stop-color:#899AD3"/>
		<stop  offset="0.1613" style="stop-color:#504F52"/>
		<stop  offset="0.4731" style="stop-color:#636366"/>
		<stop  offset="0.5269" style="stop-color:#D6B94D"/>
		<stop  offset="0.6452" style="stop-color:#6B6B6B"/>
	</linearGradient>
	<path fill="url(#SVGID_24_)" d="M403.938,260.29c0,4.932-2.509,5.21-5.512,5.21l0,0c-3.002,0-5.512-0.278-5.512-5.21v-35.285
		c0-4.933,11.024-4.933,11.024,0V260.29z"/>
	
		<linearGradient id="SVGID_25_" gradientUnits="userSpaceOnUse" x1="444.4893" y1="135.6094" x2="446.064" y2="135.6094" gradientTransform="matrix(1 0 0 -1 -50 374.9072)">
		<stop  offset="0" style="stop-color:#FFFFFF"/>
		<stop  offset="1" style="stop-color:#B1B1B1"/>
	</linearGradient>
	<path fill="url(#SVGID_25_)" d="M396.064,255.824c0,0.744-1.575-2.233-1.575-2.978v-29.331c0-0.744,1.575-1.052,1.575-0.744
		V255.824z"/>
	
		<linearGradient id="SVGID_26_" gradientUnits="userSpaceOnUse" x1="448.4253" y1="136.4517" x2="450.7876" y2="136.4517" gradientTransform="matrix(1 0 0 -1 -50 374.9072)">
		<stop  offset="0" style="stop-color:#FFFFFF"/>
		<stop  offset="1" style="stop-color:#B1B1B1"/>
	</linearGradient>
	<path fill="url(#SVGID_26_)" d="M400.788,253.508c0,0.788-0.162,1.63-0.787,1.63c0,0-1.576,0.104-1.576-0.684v-32.591
		c0.659-0.325,2.083,0.248,2.362,0.745V253.508z"/>
	<path fill="#FFC107" d="M403.938,260.8c0,4.449-2.509,4.701-5.512,4.701l0,0c-3.002,0-5.512-0.252-5.512-4.701v-2.744
		c0-3.722,11.024-3.722,11.024,0V260.8z"/>
	<path d="M400.641,260.635c-0.006,2.563-1.067,2.702-2.5,2.693l0,0c-1.433-0.011-2.495-0.161-2.489-2.726l0.003,0.414
		c0.004-2.233,4.994-2.201,4.989,0.032L400.641,260.635z"/>
	<path fill="#000100" d="M491.577,212.172c-2.093-0.848-7.69-3.778-18.28-3.778s-17.497,3.125-19.127,3.831
		c-1.63,0.705-4.114,3.125-4.114,7.36c0,3.389,8.839,12.285,23.654,12.285c13.129,0,20.247-9.643,21.698-11.838
		c0.187-0.143,0.284-0.292,0.284-0.447C495.691,215.35,493.67,213.02,491.577,212.172z"/>
	
		<linearGradient id="SVGID_27_" gradientUnits="userSpaceOnUse" x1="513.9771" y1="121.4961" x2="534.311" y2="121.4961" gradientTransform="matrix(1 0 0 -1 -50 374.9072)">
		<stop  offset="0" style="stop-color:#899AD3"/>
		<stop  offset="0.1613" style="stop-color:#504F52"/>
		<stop  offset="0.457" style="stop-color:#636366"/>
		<stop  offset="0.5269" style="stop-color:#983FFF"/>
		<stop  offset="0.6452" style="stop-color:#6B6B6B"/>
	</linearGradient>
	<path fill="url(#SVGID_27_)" d="M484.311,278.739c0,5.614-4.552,5.931-10.167,5.931l0,0c-5.615,0-10.167-0.316-10.167-5.931
		v-52.375c0-5.614,20.334-5.614,20.334,0V278.739z"/>
	
		<linearGradient id="SVGID_28_" gradientUnits="userSpaceOnUse" x1="517.3662" y1="126.1689" x2="520.7549" y2="126.1689" gradientTransform="matrix(1 0 0 -1 -50 374.9072)">
		<stop  offset="0" style="stop-color:#FFFFFF"/>
		<stop  offset="1" style="stop-color:#B1B1B1"/>
	</linearGradient>
	<path fill="url(#SVGID_28_)" d="M470.755,273.655c0,0.848-3.389-2.541-3.389-3.389v-45.597c0-0.848,3.389-1.198,3.389-0.848
		V273.655z"/>
	
		<linearGradient id="SVGID_29_" gradientUnits="userSpaceOnUse" x1="525.8384" y1="126.1626" x2="530.9224" y2="126.1626" gradientTransform="matrix(1 0 0 -1 -50 374.9072)">
		<stop  offset="0" style="stop-color:#FFFFFF"/>
		<stop  offset="1" style="stop-color:#B1B1B1"/>
	</linearGradient>
	<path fill="url(#SVGID_29_)" d="M480.922,256.27c0,0.896-0.349,17.569-1.694,17.569c0,0-3.389,0.119-3.389-0.778v-49.309
		c1.417-0.371,4.481,0.281,5.083,0.847V256.27z"/>
	<path fill="#9C27B0" d="M484.311,279.321c0,5.063-4.552,5.35-10.167,5.35l0,0c-5.615,0-10.167-0.286-10.167-5.35v-3.124
		c0-4.236,20.334-4.236,20.334,0V279.321z"/>
	<path d="M479.226,279.132c-0.01,2.919-2.175,3.076-5.094,3.066l0,0c-2.919-0.011-5.083-0.184-5.073-3.103l0.007,0.472
		c0.009-2.542,10.176-2.505,10.167,0.037L479.226,279.132z"/>
	<path fill="#000100" d="M567.829,212.172c-2.094-0.848-7.689-3.778-18.28-3.778s-17.497,3.125-19.128,3.831
		c-1.629,0.705-4.113,3.125-4.113,7.36c0,3.389,8.84,12.285,23.654,12.285c13.129,0,20.247-9.643,21.698-11.838
		c0.187-0.143,0.283-0.292,0.283-0.447C571.943,215.35,569.922,213.02,567.829,212.172z"/>
	
		<linearGradient id="SVGID_30_" gradientUnits="userSpaceOnUse" x1="590.229" y1="128.4019" x2="610.562" y2="128.4019" gradientTransform="matrix(1 0 0 -1 -50 374.9072)">
		<stop  offset="0" style="stop-color:#899AD3"/>
		<stop  offset="0.1613" style="stop-color:#504F52"/>
		<stop  offset="0.4731" style="stop-color:#636366"/>
		<stop  offset="0.5269" style="stop-color:#D6B94D"/>
		<stop  offset="0.6452" style="stop-color:#6B6B6B"/>
	</linearGradient>
	<path fill="url(#SVGID_30_)" d="M560.562,264.926c0,5.615-4.552,5.932-10.166,5.932l0,0c-5.614,0-10.167-0.316-10.167-5.932
		v-38.563c0-5.614,20.333-5.614,20.333,0V264.926z"/>
	
		<linearGradient id="SVGID_31_" gradientUnits="userSpaceOnUse" x1="593.6177" y1="130.3281" x2="597.0063" y2="130.3281" gradientTransform="matrix(1 0 0 -1 -50 374.9072)">
		<stop  offset="0" style="stop-color:#FFFFFF"/>
		<stop  offset="1" style="stop-color:#B1B1B1"/>
	</linearGradient>
	<path fill="url(#SVGID_31_)" d="M547.006,266.184c0,0.848-3.389-2.542-3.389-3.39v-38.973c0-0.847,3.389-1.198,3.389-0.847V266.184
		z"/>
	
		<linearGradient id="SVGID_32_" gradientUnits="userSpaceOnUse" x1="602.0903" y1="130.3228" x2="607.1743" y2="130.3228" gradientTransform="matrix(1 0 0 -1 -50 374.9072)">
		<stop  offset="0" style="stop-color:#FFFFFF"/>
		<stop  offset="1" style="stop-color:#B1B1B1"/>
	</linearGradient>
	<path fill="url(#SVGID_32_)" d="M557.174,246.103c0,0.897-0.35,20.265-1.695,20.265c0,0-3.389,0.119-3.389-0.777v-42.685
		c1.416-0.371,4.48,0.281,5.084,0.847V246.103z"/>
	<path fill="#FF9800" d="M560.562,265.509c0,5.063-4.552,5.351-10.166,5.351l0,0c-5.614,0-10.167-0.287-10.167-5.351v-3.125
		c0-4.235,20.333-4.235,20.333,0V265.509z"/>
	<path d="M555.477,265.321c-0.009,2.919-2.174,3.076-5.094,3.066l0,0c-2.919-0.012-5.082-0.184-5.072-3.103l0.008,0.471
		c0.008-2.542,10.176-2.505,10.166,0.037L555.477,265.321z"/>
</g>
<g id="text">
	<g>
		<path fill="#666666" stroke="#CCCCCC" stroke-width="6" d="M56.536,92.68c3.242,0,6.118,0.634,8.626,1.9
			c2.508,1.267,4.471,3.205,5.89,5.814c1.417,2.61,2.128,5.966,2.128,10.07v23.256h-9.5v-22.04c0-3.597-0.786-6.282-2.356-8.056
			c-1.571-1.773-3.826-2.66-6.764-2.66c-2.078,0-3.914,0.456-5.51,1.368c-1.596,0.912-2.838,2.255-3.724,4.028
			c-0.887,1.774-1.33,4.028-1.33,6.764v20.596h-9.5v-22.04c0-3.597-0.786-6.282-2.356-8.056c-1.571-1.773-3.826-2.66-6.764-2.66
			c-2.078,0-3.914,0.456-5.51,1.368c-1.596,0.912-2.838,2.255-3.724,4.028c-0.887,1.774-1.33,4.028-1.33,6.764v20.596h-9.5V93.136
			h9.044v10.792l-1.596-3.192c1.368-2.634,3.355-4.636,5.966-6.004c2.609-1.368,5.586-2.052,8.93-2.052
			c3.8,0,7.106,0.938,9.918,2.812c2.812,1.875,4.674,4.712,5.586,8.512l-3.724-1.292c1.317-3.04,3.496-5.472,6.536-7.296
			C49.012,93.592,52.533,92.68,56.536,92.68z"/>
		<path fill="#666666" stroke="#CCCCCC" stroke-width="6" d="M109.507,134.252c-4.256,0-8.044-0.899-11.362-2.698
			c-3.319-1.798-5.917-4.268-7.79-7.41c-1.875-3.141-2.812-6.713-2.812-10.716c0-4.053,0.937-7.638,2.812-10.754
			c1.874-3.116,4.471-5.56,7.79-7.334c3.318-1.773,7.106-2.66,11.362-2.66c3.952,0,7.435,0.798,10.45,2.394
			c3.014,1.596,5.307,3.94,6.878,7.03l-7.296,4.256c-1.216-1.925-2.698-3.344-4.446-4.256c-1.748-0.912-3.636-1.368-5.662-1.368
			c-2.331,0-4.434,0.507-6.308,1.52c-1.875,1.014-3.344,2.47-4.408,4.37c-1.064,1.9-1.596,4.168-1.596,6.802
			c0,2.635,0.532,4.902,1.596,6.802c1.064,1.9,2.533,3.357,4.408,4.37c1.874,1.014,3.977,1.52,6.308,1.52
			c2.026,0,3.914-0.456,5.662-1.368c1.748-0.912,3.23-2.33,4.446-4.256l7.296,4.256c-1.571,3.04-3.864,5.384-6.878,7.03
			C116.942,133.429,113.459,134.252,109.507,134.252z"/>
		<path fill="#666666" stroke="#CCCCCC" stroke-width="6" d="M140.515,148.464V93.136h9.044v9.576l-0.304,10.792l0.76,10.792v24.168
			H140.515z M163.011,134.252c-3.294,0-6.296-0.76-9.006-2.28c-2.711-1.52-4.864-3.812-6.46-6.878
			c-1.596-3.065-2.394-6.954-2.394-11.666c0-4.762,0.771-8.664,2.318-11.704c1.545-3.04,3.66-5.307,6.346-6.802
			c2.685-1.494,5.75-2.242,9.196-2.242c4.002,0,7.536,0.862,10.602,2.584c3.065,1.723,5.497,4.13,7.296,7.22
			c1.798,3.091,2.698,6.739,2.698,10.944c0,4.206-0.9,7.866-2.698,10.982c-1.799,3.116-4.231,5.536-7.296,7.258
			C170.546,133.391,167.013,134.252,163.011,134.252z M161.947,126.12c2.28,0,4.319-0.506,6.118-1.52
			c1.798-1.013,3.23-2.482,4.294-4.408c1.064-1.925,1.596-4.18,1.596-6.764c0-2.634-0.532-4.902-1.596-6.802
			c-1.064-1.9-2.496-3.355-4.294-4.37c-1.799-1.013-3.838-1.52-6.118-1.52c-2.28,0-4.332,0.507-6.156,1.52
			c-1.824,1.014-3.268,2.47-4.332,4.37c-1.064,1.9-1.596,4.168-1.596,6.802c0,2.584,0.532,4.839,1.596,6.764
			c1.064,1.926,2.508,3.395,4.332,4.408C157.615,125.614,159.667,126.12,161.947,126.12z"/>
		<path fill="#666666" stroke="#CCCCCC" stroke-width="6" d="M196.829,116.544v-7.904h20.9v7.904H196.829z"/>
		<path fill="#666666" stroke="#CCCCCC" stroke-width="6" d="M246.154,134.252c-3.396,0-6.65-0.444-9.767-1.33
			c-3.116-0.886-5.586-1.963-7.41-3.23l3.648-7.22c1.824,1.166,4.002,2.128,6.536,2.888c2.532,0.76,5.065,1.14,7.6,1.14
			c2.989,0,5.155-0.405,6.498-1.216c1.342-0.81,2.014-1.9,2.014-3.268c0-1.114-0.456-1.963-1.367-2.546
			c-0.912-0.582-2.104-1.026-3.572-1.33c-1.471-0.304-3.104-0.582-4.902-0.836c-1.799-0.253-3.598-0.595-5.396-1.026
			c-1.8-0.43-3.434-1.064-4.902-1.9c-1.47-0.836-2.66-1.963-3.572-3.382c-0.912-1.418-1.368-3.293-1.368-5.624
			c0-2.584,0.734-4.826,2.204-6.726c1.47-1.9,3.534-3.369,6.194-4.408c2.66-1.038,5.814-1.558,9.462-1.558
			c2.736,0,5.497,0.304,8.284,0.912c2.786,0.608,5.092,1.47,6.916,2.584l-3.648,7.22c-1.926-1.165-3.863-1.963-5.813-2.394
			c-1.951-0.43-3.89-0.646-5.814-0.646c-2.888,0-5.028,0.431-6.422,1.292c-1.394,0.862-2.09,1.951-2.09,3.268
			c0,1.216,0.456,2.128,1.368,2.736s2.102,1.09,3.572,1.444c1.469,0.355,3.103,0.646,4.901,0.874
			c1.798,0.228,3.584,0.57,5.358,1.026c1.772,0.456,3.407,1.077,4.901,1.862c1.494,0.786,2.698,1.888,3.61,3.306
			c0.912,1.419,1.368,3.268,1.368,5.548c0,2.534-0.748,4.738-2.242,6.612c-1.495,1.875-3.61,3.332-6.346,4.37
			C253.221,133.731,249.954,134.252,246.154,134.252z"/>
		<path fill="#666666" stroke="#CCCCCC" stroke-width="6" d="M297.3,134.252c-4.51,0-8.448-0.899-11.817-2.698
			c-3.37-1.798-5.979-4.268-7.828-7.41c-1.851-3.141-2.774-6.713-2.774-10.716c0-4.053,0.899-7.638,2.698-10.754
			c1.798-3.116,4.281-5.56,7.448-7.334c3.166-1.773,6.775-2.66,10.83-2.66c3.952,0,7.473,0.862,10.563,2.584
			c3.09,1.723,5.522,4.155,7.296,7.296c1.773,3.142,2.66,6.84,2.66,11.096c0,0.406-0.013,0.862-0.038,1.368
			c-0.025,0.507-0.063,0.988-0.113,1.444h-33.82v-6.308h28.804l-3.724,1.976c0.05-2.33-0.432-4.382-1.444-6.156
			c-1.014-1.772-2.394-3.166-4.142-4.18c-1.748-1.013-3.763-1.52-6.042-1.52c-2.331,0-4.37,0.507-6.118,1.52
			c-1.748,1.014-3.116,2.42-4.104,4.218c-0.987,1.799-1.481,3.914-1.481,6.346v1.52c0,2.432,0.557,4.586,1.672,6.46
			c1.114,1.875,2.685,3.319,4.712,4.332c2.026,1.014,4.357,1.52,6.992,1.52c2.28,0,4.332-0.354,6.156-1.064
			c1.823-0.709,3.444-1.824,4.863-3.344l5.093,5.852c-1.824,2.128-4.117,3.762-6.879,4.902
			C304,133.682,300.846,134.252,297.3,134.252z"/>
		<path fill="#666666" stroke="#CCCCCC" stroke-width="6" d="M330.969,133.72V93.136h9.044v11.172l-1.064-3.268
			c1.216-2.736,3.128-4.813,5.738-6.232c2.608-1.418,5.863-2.128,9.766-2.128v9.044c-0.406-0.101-0.786-0.164-1.14-0.19
			c-0.355-0.025-0.71-0.038-1.064-0.038c-3.598,0-6.46,1.052-8.588,3.154c-2.128,2.103-3.191,5.232-3.191,9.386v19.684H330.969z"/>
		<path fill="#666666" stroke="#CCCCCC" stroke-width="6" d="M380.292,133.72l-17.404-40.584h9.88l14.972,35.796h-4.863
			l15.504-35.796h9.12l-17.404,40.584H380.292z"/>
		<path fill="#666666" stroke="#CCCCCC" stroke-width="6" d="M436.834,134.252c-4.51,0-8.448-0.899-11.817-2.698
			c-3.37-1.798-5.979-4.268-7.828-7.41c-1.851-3.141-2.774-6.713-2.774-10.716c0-4.053,0.899-7.638,2.698-10.754
			c1.798-3.116,4.281-5.56,7.448-7.334c3.166-1.773,6.775-2.66,10.83-2.66c3.952,0,7.473,0.862,10.563,2.584
			c3.09,1.723,5.522,4.155,7.296,7.296c1.773,3.142,2.66,6.84,2.66,11.096c0,0.406-0.013,0.862-0.038,1.368
			c-0.025,0.507-0.063,0.988-0.113,1.444h-33.82v-6.308h28.804l-3.724,1.976c0.05-2.33-0.432-4.382-1.444-6.156
			c-1.014-1.772-2.394-3.166-4.142-4.18c-1.748-1.013-3.763-1.52-6.042-1.52c-2.331,0-4.37,0.507-6.118,1.52
			c-1.748,1.014-3.116,2.42-4.104,4.218c-0.987,1.799-1.481,3.914-1.481,6.346v1.52c0,2.432,0.557,4.586,1.672,6.46
			c1.114,1.875,2.685,3.319,4.712,4.332c2.026,1.014,4.357,1.52,6.992,1.52c2.28,0,4.332-0.354,6.156-1.064
			c1.823-0.709,3.444-1.824,4.863-3.344l5.093,5.852c-1.824,2.128-4.117,3.762-6.879,4.902
			C443.535,133.682,440.38,134.252,436.834,134.252z"/>
		<path fill="#666666" stroke="#CCCCCC" stroke-width="6" d="M470.503,133.72V93.136h9.044v11.172l-1.064-3.268
			c1.216-2.736,3.128-4.813,5.738-6.232c2.608-1.418,5.863-2.128,9.766-2.128v9.044c-0.406-0.101-0.786-0.164-1.14-0.19
			c-0.355-0.025-0.71-0.038-1.064-0.038c-3.598,0-6.46,1.052-8.588,3.154c-2.128,2.103-3.191,5.232-3.191,9.386v19.684H470.503z"/>
		<path fill="#666666" stroke="#CCCCCC" stroke-width="6" d="M505.235,116.544v-7.904h20.9v7.904H505.235z"/>
		<path fill="#666666" stroke="#CCCCCC" stroke-width="6" d="M549.847,133.72l-14.896-40.584h8.969l12.768,35.796h-4.256
			l13.376-35.796h7.979l12.996,35.796h-4.18l13.147-35.796h8.437l-14.972,40.584h-9.12l-11.856-31.692h2.813l-12.084,31.692H549.847
			z"/>
		<path fill="#666666" stroke="#CCCCCC" stroke-width="6" d="M634.129,134.252c-4.51,0-8.448-0.899-11.817-2.698
			c-3.37-1.798-5.979-4.268-7.828-7.41c-1.851-3.141-2.774-6.713-2.774-10.716c0-4.053,0.899-7.638,2.698-10.754
			c1.798-3.116,4.281-5.56,7.448-7.334c3.166-1.773,6.775-2.66,10.83-2.66c3.952,0,7.473,0.862,10.563,2.584
			c3.09,1.723,5.522,4.155,7.296,7.296c1.773,3.142,2.66,6.84,2.66,11.096c0,0.406-0.013,0.862-0.038,1.368
			c-0.025,0.507-0.063,0.988-0.113,1.444h-33.82v-6.308h28.804l-3.724,1.976c0.05-2.33-0.432-4.382-1.444-6.156
			c-1.014-1.772-2.394-3.166-4.142-4.18c-1.748-1.013-3.763-1.52-6.042-1.52c-2.331,0-4.37,0.507-6.118,1.52
			c-1.748,1.014-3.116,2.42-4.104,4.218c-0.987,1.799-1.481,3.914-1.481,6.346v1.52c0,2.432,0.557,4.586,1.672,6.46
			c1.114,1.875,2.685,3.319,4.712,4.332c2.026,1.014,4.357,1.52,6.992,1.52c2.28,0,4.332-0.354,6.156-1.064
			c1.823-0.709,3.444-1.824,4.863-3.344l5.093,5.852c-1.824,2.128-4.117,3.762-6.879,4.902
			C640.83,133.682,637.675,134.252,634.129,134.252z"/>
		<path fill="#666666" stroke="#CCCCCC" stroke-width="6" d="M667.798,133.72V77.328h9.5v25.232l-0.761,10.792l0.305,10.792v9.576
			H667.798z M690.293,134.252c-3.445,0-6.511-0.76-9.195-2.28c-2.687-1.52-4.802-3.812-6.347-6.878
			c-1.546-3.065-2.317-6.954-2.317-11.666c0-4.762,0.798-8.664,2.394-11.704c1.597-3.04,3.749-5.307,6.46-6.802
			c2.71-1.494,5.712-2.242,9.006-2.242c4.002,0,7.536,0.862,10.603,2.584c3.064,1.723,5.497,4.13,7.296,7.22
			c1.798,3.091,2.698,6.739,2.698,10.944c0,4.206-0.9,7.854-2.698,10.944c-1.799,3.091-4.231,5.51-7.296,7.258
			C697.83,133.378,694.295,134.252,690.293,134.252z M689.23,126.12c2.28,0,4.319-0.506,6.118-1.52
			c1.798-1.013,3.229-2.482,4.294-4.408c1.063-1.925,1.596-4.18,1.596-6.764c0-2.634-0.532-4.902-1.596-6.802
			c-1.064-1.9-2.496-3.355-4.294-4.37c-1.799-1.013-3.838-1.52-6.118-1.52s-4.332,0.507-6.156,1.52
			c-1.824,1.014-3.268,2.47-4.332,4.37c-1.063,1.9-1.596,4.168-1.596,6.802c0,2.584,0.532,4.839,1.596,6.764
			c1.064,1.926,2.508,3.395,4.332,4.408C684.898,125.614,686.95,126.12,689.23,126.12z"/>
		<path fill="#666666" stroke="#CCCCCC" stroke-width="6" d="M744.024,134.252c-4.256,0-8.044-0.899-11.361-2.698
			c-3.319-1.798-5.916-4.268-7.79-7.41c-1.875-3.141-2.813-6.713-2.813-10.716c0-4.053,0.938-7.638,2.813-10.754
			c1.874-3.116,4.471-5.56,7.79-7.334c3.317-1.773,7.105-2.66,11.361-2.66c3.952,0,7.436,0.798,10.45,2.394
			c3.014,1.596,5.308,3.94,6.878,7.03l-7.296,4.256c-1.216-1.925-2.698-3.344-4.445-4.256c-1.748-0.912-3.637-1.368-5.662-1.368
			c-2.331,0-4.435,0.507-6.309,1.52c-1.875,1.014-3.344,2.47-4.408,4.37c-1.063,1.9-1.596,4.168-1.596,6.802
			c0,2.635,0.532,4.902,1.596,6.802c1.064,1.9,2.533,3.357,4.408,4.37c1.874,1.014,3.978,1.52,6.309,1.52
			c2.025,0,3.914-0.456,5.662-1.368c1.747-0.912,3.229-2.33,4.445-4.256l7.296,4.256c-1.57,3.04-3.864,5.384-6.878,7.03
			C751.459,133.429,747.976,134.252,744.024,134.252z"/>
		<path fill="#666666" stroke="#CCCCCC" stroke-width="6" d="M775.033,133.72V93.136h9.044v11.172l-1.064-3.268
			c1.216-2.736,3.128-4.813,5.738-6.232c2.608-1.418,5.863-2.128,9.766-2.128v9.044c-0.406-0.101-0.786-0.164-1.14-0.19
			c-0.355-0.025-0.71-0.038-1.064-0.038c-3.598,0-6.46,1.052-8.588,3.154c-2.128,2.103-3.191,5.232-3.191,9.386v19.684H775.033z"/>
		<path fill="#666666" stroke="#CCCCCC" stroke-width="6" d="M821.392,134.252c-3.04,0-5.7-0.521-7.979-1.558
			c-2.28-1.038-4.041-2.482-5.282-4.332c-1.242-1.849-1.862-3.939-1.862-6.27c0-2.28,0.544-4.332,1.634-6.156
			c1.09-1.824,2.875-3.268,5.358-4.332c2.482-1.064,5.776-1.596,9.88-1.596h11.78v6.308h-11.096c-3.243,0-5.423,0.52-6.536,1.558
			c-1.115,1.039-1.672,2.318-1.672,3.838c0,1.723,0.684,3.091,2.052,4.104c1.368,1.014,3.268,1.52,5.7,1.52
			c2.329,0,4.42-0.532,6.27-1.596c1.849-1.064,3.179-2.634,3.99-4.712l1.596,5.7c-0.912,2.382-2.546,4.231-4.901,5.548
			C827.966,133.594,824.989,134.252,821.392,134.252z M834.161,133.72v-8.208l-0.532-1.748V109.4c0-2.786-0.836-4.952-2.508-6.498
			c-1.672-1.545-4.206-2.318-7.601-2.318c-2.279,0-4.521,0.355-6.726,1.064c-2.204,0.71-4.066,1.698-5.586,2.964l-3.725-6.916
			c2.179-1.672,4.775-2.926,7.79-3.762s6.144-1.254,9.387-1.254c5.877,0,10.424,1.406,13.642,4.218
			c3.217,2.812,4.826,7.157,4.826,13.034v23.788H834.161z"/>
		<path fill="#666666" stroke="#CCCCCC" stroke-width="6" d="M868.968,133.72l-14.896-40.584h8.969l12.768,35.796h-4.256
			l13.376-35.796h7.979l12.996,35.796h-4.18l13.147-35.796h8.437l-14.972,40.584h-9.12l-11.856-31.692h2.813l-12.084,31.692H868.968
			z"/>
		<path fill="#666666" stroke="#CCCCCC" stroke-width="6" d="M935.316,133.72V77.328h9.5v56.392H935.316z"/>
	</g>
	<g>
		<path fill="#444E66" d="M56.536,92.68c3.242,0,6.118,0.634,8.626,1.9c2.508,1.267,4.471,3.205,5.89,5.814
			c1.417,2.61,2.128,5.966,2.128,10.07v23.256h-9.5v-22.04c0-3.597-0.786-6.282-2.356-8.056c-1.571-1.773-3.826-2.66-6.764-2.66
			c-2.078,0-3.914,0.456-5.51,1.368c-1.596,0.912-2.838,2.255-3.724,4.028c-0.887,1.774-1.33,4.028-1.33,6.764v20.596h-9.5v-22.04
			c0-3.597-0.786-6.282-2.356-8.056c-1.571-1.773-3.826-2.66-6.764-2.66c-2.078,0-3.914,0.456-5.51,1.368
			c-1.596,0.912-2.838,2.255-3.724,4.028c-0.887,1.774-1.33,4.028-1.33,6.764v20.596h-9.5V93.136h9.044v10.792l-1.596-3.192
			c1.368-2.634,3.355-4.636,5.966-6.004c2.609-1.368,5.586-2.052,8.93-2.052c3.8,0,7.106,0.938,9.918,2.812
			c2.812,1.875,4.674,4.712,5.586,8.512l-3.724-1.292c1.317-3.04,3.496-5.472,6.536-7.296C49.012,93.592,52.533,92.68,56.536,92.68z
			"/>
		<path fill="#444E66" d="M109.507,134.252c-4.256,0-8.044-0.899-11.362-2.698c-3.319-1.798-5.917-4.268-7.79-7.41
			c-1.875-3.141-2.812-6.713-2.812-10.716c0-4.053,0.937-7.638,2.812-10.754c1.874-3.116,4.471-5.56,7.79-7.334
			c3.318-1.773,7.106-2.66,11.362-2.66c3.952,0,7.435,0.798,10.45,2.394c3.014,1.596,5.307,3.94,6.878,7.03l-7.296,4.256
			c-1.216-1.925-2.698-3.344-4.446-4.256c-1.748-0.912-3.636-1.368-5.662-1.368c-2.331,0-4.434,0.507-6.308,1.52
			c-1.875,1.014-3.344,2.47-4.408,4.37c-1.064,1.9-1.596,4.168-1.596,6.802c0,2.635,0.532,4.902,1.596,6.802
			c1.064,1.9,2.533,3.357,4.408,4.37c1.874,1.014,3.977,1.52,6.308,1.52c2.026,0,3.914-0.456,5.662-1.368
			c1.748-0.912,3.23-2.33,4.446-4.256l7.296,4.256c-1.571,3.04-3.864,5.384-6.878,7.03
			C116.942,133.429,113.459,134.252,109.507,134.252z"/>
		<path fill="#444E66" d="M140.515,148.464V93.136h9.044v9.576l-0.304,10.792l0.76,10.792v24.168H140.515z M163.011,134.252
			c-3.294,0-6.296-0.76-9.006-2.28c-2.711-1.52-4.864-3.812-6.46-6.878c-1.596-3.065-2.394-6.954-2.394-11.666
			c0-4.762,0.771-8.664,2.318-11.704c1.545-3.04,3.66-5.307,6.346-6.802c2.685-1.494,5.75-2.242,9.196-2.242
			c4.002,0,7.536,0.862,10.602,2.584c3.065,1.723,5.497,4.13,7.296,7.22c1.798,3.091,2.698,6.739,2.698,10.944
			c0,4.206-0.9,7.866-2.698,10.982c-1.799,3.116-4.231,5.536-7.296,7.258C170.546,133.391,167.013,134.252,163.011,134.252z
			 M161.947,126.12c2.28,0,4.319-0.506,6.118-1.52c1.798-1.013,3.23-2.482,4.294-4.408c1.064-1.925,1.596-4.18,1.596-6.764
			c0-2.634-0.532-4.902-1.596-6.802c-1.064-1.9-2.496-3.355-4.294-4.37c-1.799-1.013-3.838-1.52-6.118-1.52
			c-2.28,0-4.332,0.507-6.156,1.52c-1.824,1.014-3.268,2.47-4.332,4.37c-1.064,1.9-1.596,4.168-1.596,6.802
			c0,2.584,0.532,4.839,1.596,6.764c1.064,1.926,2.508,3.395,4.332,4.408C157.615,125.614,159.667,126.12,161.947,126.12z"/>
		<path fill="#444E66" d="M196.829,116.544v-7.904h20.9v7.904H196.829z"/>
		<path fill="#444E66" d="M246.154,134.252c-3.396,0-6.65-0.444-9.767-1.33c-3.116-0.886-5.586-1.963-7.41-3.23l3.648-7.22
			c1.824,1.166,4.002,2.128,6.536,2.888c2.532,0.76,5.065,1.14,7.6,1.14c2.989,0,5.155-0.405,6.498-1.216
			c1.342-0.81,2.014-1.9,2.014-3.268c0-1.114-0.456-1.963-1.367-2.546c-0.912-0.582-2.104-1.026-3.572-1.33
			c-1.471-0.304-3.104-0.582-4.902-0.836c-1.799-0.253-3.598-0.595-5.396-1.026c-1.8-0.43-3.434-1.064-4.902-1.9
			c-1.47-0.836-2.66-1.963-3.572-3.382c-0.912-1.418-1.368-3.293-1.368-5.624c0-2.584,0.734-4.826,2.204-6.726
			c1.47-1.9,3.534-3.369,6.194-4.408c2.66-1.038,5.814-1.558,9.462-1.558c2.736,0,5.497,0.304,8.284,0.912
			c2.786,0.608,5.092,1.47,6.916,2.584l-3.648,7.22c-1.926-1.165-3.863-1.963-5.813-2.394c-1.951-0.43-3.89-0.646-5.814-0.646
			c-2.888,0-5.028,0.431-6.422,1.292c-1.394,0.862-2.09,1.951-2.09,3.268c0,1.216,0.456,2.128,1.368,2.736s2.102,1.09,3.572,1.444
			c1.469,0.355,3.103,0.646,4.901,0.874c1.798,0.228,3.584,0.57,5.358,1.026c1.772,0.456,3.407,1.077,4.901,1.862
			c1.494,0.786,2.698,1.888,3.61,3.306c0.912,1.419,1.368,3.268,1.368,5.548c0,2.534-0.748,4.738-2.242,6.612
			c-1.495,1.875-3.61,3.332-6.346,4.37C253.221,133.731,249.954,134.252,246.154,134.252z"/>
		<path fill="#444E66" d="M297.3,134.252c-4.51,0-8.448-0.899-11.817-2.698c-3.37-1.798-5.979-4.268-7.828-7.41
			c-1.851-3.141-2.774-6.713-2.774-10.716c0-4.053,0.899-7.638,2.698-10.754c1.798-3.116,4.281-5.56,7.448-7.334
			c3.166-1.773,6.775-2.66,10.83-2.66c3.952,0,7.473,0.862,10.563,2.584c3.09,1.723,5.522,4.155,7.296,7.296
			c1.773,3.142,2.66,6.84,2.66,11.096c0,0.406-0.013,0.862-0.038,1.368c-0.025,0.507-0.063,0.988-0.113,1.444h-33.82v-6.308h28.804
			l-3.724,1.976c0.05-2.33-0.432-4.382-1.444-6.156c-1.014-1.772-2.394-3.166-4.142-4.18c-1.748-1.013-3.763-1.52-6.042-1.52
			c-2.331,0-4.37,0.507-6.118,1.52c-1.748,1.014-3.116,2.42-4.104,4.218c-0.987,1.799-1.481,3.914-1.481,6.346v1.52
			c0,2.432,0.557,4.586,1.672,6.46c1.114,1.875,2.685,3.319,4.712,4.332c2.026,1.014,4.357,1.52,6.992,1.52
			c2.28,0,4.332-0.354,6.156-1.064c1.823-0.709,3.444-1.824,4.863-3.344l5.093,5.852c-1.824,2.128-4.117,3.762-6.879,4.902
			C304,133.682,300.846,134.252,297.3,134.252z"/>
		<path fill="#444E66" d="M330.969,133.72V93.136h9.044v11.172l-1.064-3.268c1.216-2.736,3.128-4.813,5.738-6.232
			c2.608-1.418,5.863-2.128,9.766-2.128v9.044c-0.406-0.101-0.786-0.164-1.14-0.19c-0.355-0.025-0.71-0.038-1.064-0.038
			c-3.598,0-6.46,1.052-8.588,3.154c-2.128,2.103-3.191,5.232-3.191,9.386v19.684H330.969z"/>
		<path fill="#444E66" d="M380.292,133.72l-17.404-40.584h9.88l14.972,35.796h-4.863l15.504-35.796h9.12l-17.404,40.584H380.292z"/>
		<path fill="#444E66" d="M436.834,134.252c-4.51,0-8.448-0.899-11.817-2.698c-3.37-1.798-5.979-4.268-7.828-7.41
			c-1.851-3.141-2.774-6.713-2.774-10.716c0-4.053,0.899-7.638,2.698-10.754c1.798-3.116,4.281-5.56,7.448-7.334
			c3.166-1.773,6.775-2.66,10.83-2.66c3.952,0,7.473,0.862,10.563,2.584c3.09,1.723,5.522,4.155,7.296,7.296
			c1.773,3.142,2.66,6.84,2.66,11.096c0,0.406-0.013,0.862-0.038,1.368c-0.025,0.507-0.063,0.988-0.113,1.444h-33.82v-6.308h28.804
			l-3.724,1.976c0.05-2.33-0.432-4.382-1.444-6.156c-1.014-1.772-2.394-3.166-4.142-4.18c-1.748-1.013-3.763-1.52-6.042-1.52
			c-2.331,0-4.37,0.507-6.118,1.52c-1.748,1.014-3.116,2.42-4.104,4.218c-0.987,1.799-1.481,3.914-1.481,6.346v1.52
			c0,2.432,0.557,4.586,1.672,6.46c1.114,1.875,2.685,3.319,4.712,4.332c2.026,1.014,4.357,1.52,6.992,1.52
			c2.28,0,4.332-0.354,6.156-1.064c1.823-0.709,3.444-1.824,4.863-3.344l5.093,5.852c-1.824,2.128-4.117,3.762-6.879,4.902
			C443.535,133.682,440.38,134.252,436.834,134.252z"/>
		<path fill="#444E66" d="M470.503,133.72V93.136h9.044v11.172l-1.064-3.268c1.216-2.736,3.128-4.813,5.738-6.232
			c2.608-1.418,5.863-2.128,9.766-2.128v9.044c-0.406-0.101-0.786-0.164-1.14-0.19c-0.355-0.025-0.71-0.038-1.064-0.038
			c-3.598,0-6.46,1.052-8.588,3.154c-2.128,2.103-3.191,5.232-3.191,9.386v19.684H470.503z"/>
		<path fill="#444E66" d="M505.235,116.544v-7.904h20.9v7.904H505.235z"/>
		<path fill="#444E66" d="M549.847,133.72l-14.896-40.584h8.969l12.768,35.796h-4.256l13.376-35.796h7.979l12.996,35.796h-4.18
			l13.147-35.796h8.437l-14.972,40.584h-9.12l-11.856-31.692h2.813l-12.084,31.692H549.847z"/>
		<path fill="#444E66" d="M634.129,134.252c-4.51,0-8.448-0.899-11.817-2.698c-3.37-1.798-5.979-4.268-7.828-7.41
			c-1.851-3.141-2.774-6.713-2.774-10.716c0-4.053,0.899-7.638,2.698-10.754c1.798-3.116,4.281-5.56,7.448-7.334
			c3.166-1.773,6.775-2.66,10.83-2.66c3.952,0,7.473,0.862,10.563,2.584c3.09,1.723,5.522,4.155,7.296,7.296
			c1.773,3.142,2.66,6.84,2.66,11.096c0,0.406-0.013,0.862-0.038,1.368c-0.025,0.507-0.063,0.988-0.113,1.444h-33.82v-6.308h28.804
			l-3.724,1.976c0.05-2.33-0.432-4.382-1.444-6.156c-1.014-1.772-2.394-3.166-4.142-4.18c-1.748-1.013-3.763-1.52-6.042-1.52
			c-2.331,0-4.37,0.507-6.118,1.52c-1.748,1.014-3.116,2.42-4.104,4.218c-0.987,1.799-1.481,3.914-1.481,6.346v1.52
			c0,2.432,0.557,4.586,1.672,6.46c1.114,1.875,2.685,3.319,4.712,4.332c2.026,1.014,4.357,1.52,6.992,1.52
			c2.28,0,4.332-0.354,6.156-1.064c1.823-0.709,3.444-1.824,4.863-3.344l5.093,5.852c-1.824,2.128-4.117,3.762-6.879,4.902
			C640.83,133.682,637.675,134.252,634.129,134.252z"/>
		<path fill="#444E66" d="M667.798,133.72V77.328h9.5v25.232l-0.761,10.792l0.305,10.792v9.576H667.798z M690.293,134.252
			c-3.445,0-6.511-0.76-9.195-2.28c-2.687-1.52-4.802-3.812-6.347-6.878c-1.546-3.065-2.317-6.954-2.317-11.666
			c0-4.762,0.798-8.664,2.394-11.704c1.597-3.04,3.749-5.307,6.46-6.802c2.71-1.494,5.712-2.242,9.006-2.242
			c4.002,0,7.536,0.862,10.603,2.584c3.064,1.723,5.497,4.13,7.296,7.22c1.798,3.091,2.698,6.739,2.698,10.944
			c0,4.206-0.9,7.854-2.698,10.944c-1.799,3.091-4.231,5.51-7.296,7.258C697.83,133.378,694.295,134.252,690.293,134.252z
			 M689.23,126.12c2.28,0,4.319-0.506,6.118-1.52c1.798-1.013,3.229-2.482,4.294-4.408c1.063-1.925,1.596-4.18,1.596-6.764
			c0-2.634-0.532-4.902-1.596-6.802c-1.064-1.9-2.496-3.355-4.294-4.37c-1.799-1.013-3.838-1.52-6.118-1.52s-4.332,0.507-6.156,1.52
			c-1.824,1.014-3.268,2.47-4.332,4.37c-1.063,1.9-1.596,4.168-1.596,6.802c0,2.584,0.532,4.839,1.596,6.764
			c1.064,1.926,2.508,3.395,4.332,4.408C684.898,125.614,686.95,126.12,689.23,126.12z"/>
		<path fill="#444E66" d="M744.024,134.252c-4.256,0-8.044-0.899-11.361-2.698c-3.319-1.798-5.916-4.268-7.79-7.41
			c-1.875-3.141-2.813-6.713-2.813-10.716c0-4.053,0.938-7.638,2.813-10.754c1.874-3.116,4.471-5.56,7.79-7.334
			c3.317-1.773,7.105-2.66,11.361-2.66c3.952,0,7.436,0.798,10.45,2.394c3.014,1.596,5.308,3.94,6.878,7.03l-7.296,4.256
			c-1.216-1.925-2.698-3.344-4.445-4.256c-1.748-0.912-3.637-1.368-5.662-1.368c-2.331,0-4.435,0.507-6.309,1.52
			c-1.875,1.014-3.344,2.47-4.408,4.37c-1.063,1.9-1.596,4.168-1.596,6.802c0,2.635,0.532,4.902,1.596,6.802
			c1.064,1.9,2.533,3.357,4.408,4.37c1.874,1.014,3.978,1.52,6.309,1.52c2.025,0,3.914-0.456,5.662-1.368
			c1.747-0.912,3.229-2.33,4.445-4.256l7.296,4.256c-1.57,3.04-3.864,5.384-6.878,7.03
			C751.459,133.429,747.976,134.252,744.024,134.252z"/>
		<path fill="#444E66" d="M775.033,133.72V93.136h9.044v11.172l-1.064-3.268c1.216-2.736,3.128-4.813,5.738-6.232
			c2.608-1.418,5.863-2.128,9.766-2.128v9.044c-0.406-0.101-0.786-0.164-1.14-0.19c-0.355-0.025-0.71-0.038-1.064-0.038
			c-3.598,0-6.46,1.052-8.588,3.154c-2.128,2.103-3.191,5.232-3.191,9.386v19.684H775.033z"/>
		<path fill="#444E66" d="M821.392,134.252c-3.04,0-5.7-0.521-7.979-1.558c-2.28-1.038-4.041-2.482-5.282-4.332
			c-1.242-1.849-1.862-3.939-1.862-6.27c0-2.28,0.544-4.332,1.634-6.156c1.09-1.824,2.875-3.268,5.358-4.332
			c2.482-1.064,5.776-1.596,9.88-1.596h11.78v6.308h-11.096c-3.243,0-5.423,0.52-6.536,1.558c-1.115,1.039-1.672,2.318-1.672,3.838
			c0,1.723,0.684,3.091,2.052,4.104c1.368,1.014,3.268,1.52,5.7,1.52c2.329,0,4.42-0.532,6.27-1.596
			c1.849-1.064,3.179-2.634,3.99-4.712l1.596,5.7c-0.912,2.382-2.546,4.231-4.901,5.548
			C827.966,133.594,824.989,134.252,821.392,134.252z M834.161,133.72v-8.208l-0.532-1.748V109.4c0-2.786-0.836-4.952-2.508-6.498
			c-1.672-1.545-4.206-2.318-7.601-2.318c-2.279,0-4.521,0.355-6.726,1.064c-2.204,0.71-4.066,1.698-5.586,2.964l-3.725-6.916
			c2.179-1.672,4.775-2.926,7.79-3.762s6.144-1.254,9.387-1.254c5.877,0,10.424,1.406,13.642,4.218
			c3.217,2.812,4.826,7.157,4.826,13.034v23.788H834.161z"/>
		<path fill="#444E66" d="M868.968,133.72l-14.896-40.584h8.969l12.768,35.796h-4.256l13.376-35.796h7.979l12.996,35.796h-4.18
			l13.147-35.796h8.437l-14.972,40.584h-9.12l-11.856-31.692h2.813l-12.084,31.692H868.968z"/>
		<path fill="#444E66" d="M935.316,133.72V77.328h9.5v56.392H935.316z"/>
	</g>
</g>
<g id="www">
</g>
<g id="llms">
</g>
<g id="Layer_15">
	<g>
	</g>
	<g>
	</g>
	<g>
	</g>
	<g>
	</g>
	<g>
	</g>
	<g>
	</g>
	<g>
	</g>
	<g>
	</g>
	<g>
	</g>
	<g>
	</g>
	<g>
	</g>
	<g>
	</g>
	<g>
	</g>
	<g>
	</g>
	<g>
	</g>
</g>
</svg>
